<?xml version="1.0" encoding="UTF-8" standalone="no"?><!DOCTYPE svg PUBLIC "-//W3C//DTD SVG 1.1//EN" "http://www.w3.org/Graphics/SVG/1.1/DTD/svg11.dtd"><svg width="100%" height="100%" viewBox="0 0 413 134" version="1.1" xmlns="http://www.w3.org/2000/svg" xmlns:xlink="http://www.w3.org/1999/xlink" xml:space="preserve" xmlns:serif="http://www.serif.com/" style="fill-rule:evenodd;clip-rule:evenodd;stroke-linejoin:round;stroke-miterlimit:2;"><path d="M391.667,0l-262.5,0l0,133.333l262.5,0c11.505,0 20.833,-9.327 20.833,-20.833l0,-91.667c0,-11.506 -9.328,-20.833 -20.833,-20.833Z" style="fill:#0f1418;fill-rule:nonzero;"/><path d="M129.167,0l-108.334,0c-11.506,0 -20.833,9.327 -20.833,20.833l0,91.667c0,11.506 9.327,20.833 20.833,20.833l108.334,0l0,-133.333Z" style="fill:#ff2d20;fill-rule:nonzero;"/><path d="M159.17,45.175l14.147,0l0,30.226l19.889,0l0,12.091l-34.036,0l0,-42.317Z" style="fill:#eee;fill-rule:nonzero;"/><path d="M197.679,85.618c-2.015,-1.814 -3.023,-4.313 -3.023,-7.496l0,-0.121c0,-3.265 1.129,-5.804 3.386,-7.617c2.257,-1.774 5.32,-2.66 9.189,-2.66c3.224,0 5.823,0.403 7.798,1.209l0,-0.544c0,-3.184 -2.035,-4.776 -6.106,-4.776c-2.982,0 -6.025,0.624 -9.128,1.874l-2.418,-9.129c4.191,-1.612 8.826,-2.418 13.904,-2.418c6.448,0 11.103,1.431 13.965,4.292c2.297,2.298 3.446,5.784 3.446,10.459l0,18.801l-13.723,0l0,-3.325c-2.539,2.74 -5.703,4.111 -9.491,4.111c-3.225,0 -5.824,-0.887 -7.799,-2.66Zm16.262,-6.65c0.806,-0.927 1.209,-2.156 1.209,-3.688l0,-1.39c-0.887,-0.363 -1.934,-0.544 -3.143,-0.544c-2.822,0 -4.232,1.229 -4.232,3.687l0,0.121c0,0.968 0.302,1.733 0.907,2.298c0.604,0.604 1.35,0.906 2.236,0.906c1.209,0 2.217,-0.463 3.023,-1.39Z" style="fill:#eee;fill-rule:nonzero;"/><path d="M232.561,54.484l13.722,0l0,6.65c2.096,-4.957 5.542,-7.335 10.338,-7.133l0,14.569l-1.451,0c-5.924,0 -8.887,3.506 -8.887,10.519l0,8.403l-13.722,0l0,-33.008Z" style="fill:#eee;fill-rule:nonzero;"/><path d="M259.22,85.618c-2.015,-1.814 -3.022,-4.313 -3.022,-7.496l0,-0.121c0,-3.265 1.128,-5.804 3.385,-7.617c2.257,-1.774 5.32,-2.66 9.189,-2.66c3.224,0 5.824,0.403 7.798,1.209l0,-0.544c0,-3.184 -2.035,-4.776 -6.105,-4.776c-2.983,0 -6.025,0.624 -9.129,1.874l-2.418,-9.129c4.192,-1.612 8.826,-2.418 13.904,-2.418c6.449,0 11.104,1.431 13.965,4.292c2.297,2.298 3.446,5.784 3.446,10.459l0,18.801l-13.723,0l0,-3.325c-2.539,2.74 -5.703,4.111 -9.491,4.111c-3.224,0 -5.824,-0.887 -7.799,-2.66Zm16.262,-6.65c0.806,-0.927 1.209,-2.156 1.209,-3.688l0,-1.39c-0.886,-0.363 -1.934,-0.544 -3.143,-0.544c-2.821,0 -4.232,1.229 -4.232,3.687l0,0.121c0,0.968 0.302,1.733 0.907,2.298c0.604,0.604 1.35,0.906 2.237,0.906c1.209,0 2.216,-0.463 3.022,-1.39Z" style="fill:#eee;fill-rule:nonzero;"/><path d="M289.931,54.484l14.387,0l5.32,16.565l5.381,-16.565l14.206,0l-13.36,33.25l-12.574,0l-13.36,-33.25Z" style="fill:#eee;fill-rule:nonzero;"/><path d="M333.155,83.562c-3.345,-3.143 -5.018,-7.274 -5.018,-12.393l0,-0.12c0,-4.958 1.592,-9.089 4.776,-12.393c3.184,-3.305 7.254,-4.958 12.211,-4.958c5.602,0 9.935,1.774 12.998,5.32c2.781,3.265 4.171,7.557 4.171,12.877l0,1.36c0,0.383 -0.02,0.695 -0.06,0.937l-21.219,0c0.967,2.942 3.042,4.413 6.226,4.413c2.297,0 4.534,-1.128 6.711,-3.385l7.375,5.864c-3.708,4.796 -8.726,7.194 -15.053,7.194c-5.401,0 -9.773,-1.572 -13.118,-4.716Zm16.624,-15.415c-0.282,-3.305 -1.813,-4.957 -4.594,-4.957c-2.499,0 -3.95,1.652 -4.353,4.957l8.947,0Z" style="fill:#eee;fill-rule:nonzero;"/><rect x="365.437" y="43.361" width="13.723" height="44.131" style="fill:#eee;fill-rule:nonzero;"/><path d="M391.667,0l-370.834,0c-11.506,0 -20.833,9.327 -20.833,20.833l0,91.667c0,11.506 9.327,20.833 20.833,20.833l370.834,0c11.505,0 20.833,-9.327 20.833,-20.833l0,-91.667c0,-11.506 -9.328,-20.833 -20.833,-20.833Z" style="fill:url(#_Linear1);fill-rule:nonzero;"/><path d="M115.086,37.701c0.037,0.136 0.057,0.277 0.057,0.418l0,21.977c0,0.574 -0.312,1.105 -0.817,1.39l-18.709,10.62l0,21.05c0,0.573 -0.309,1.101 -0.813,1.39l-39.055,22.165c-0.089,0.05 -0.187,0.082 -0.284,0.116c-0.037,0.012 -0.072,0.034 -0.11,0.044c-0.273,0.071 -0.56,0.071 -0.833,0c-0.045,-0.012 -0.085,-0.036 -0.128,-0.052c-0.09,-0.032 -0.183,-0.06 -0.268,-0.108l-39.047,-22.165c-0.504,-0.286 -0.816,-0.817 -0.817,-1.39l0,-65.931c0,-0.144 0.021,-0.285 0.057,-0.421c0.012,-0.046 0.041,-0.088 0.057,-0.134c0.03,-0.084 0.059,-0.17 0.104,-0.248c0.03,-0.053 0.075,-0.095 0.111,-0.143c0.047,-0.064 0.09,-0.13 0.145,-0.186c0.046,-0.046 0.107,-0.08 0.16,-0.12c0.059,-0.048 0.112,-0.1 0.179,-0.138l0.002,0l19.524,-11.083c0.503,-0.285 1.123,-0.285 1.626,0l19.524,11.083l0.004,0c0.065,0.04 0.12,0.09 0.179,0.136c0.053,0.04 0.112,0.076 0.158,0.12c0.057,0.058 0.098,0.124 0.147,0.188c0.034,0.048 0.081,0.09 0.109,0.143c0.047,0.08 0.073,0.164 0.106,0.248c0.016,0.046 0.045,0.088 0.057,0.136c0.037,0.137 0.056,0.277 0.057,0.419l0,41.18l16.269,-9.236l0,-21.052c0,-0.14 0.021,-0.282 0.057,-0.416c0.014,-0.049 0.041,-0.091 0.057,-0.137c0.033,-0.084 0.061,-0.17 0.106,-0.248c0.03,-0.052 0.075,-0.094 0.11,-0.142c0.048,-0.064 0.089,-0.13 0.146,-0.187c0.047,-0.046 0.105,-0.08 0.158,-0.12c0.061,-0.048 0.114,-0.1 0.179,-0.138l0.002,0l19.526,-11.083c0.503,-0.285 1.123,-0.285 1.626,0l19.524,11.083c0.069,0.04 0.122,0.09 0.183,0.136c0.051,0.04 0.11,0.076 0.157,0.12c0.056,0.059 0.097,0.125 0.146,0.189c0.036,0.048 0.081,0.09 0.11,0.142c0.046,0.078 0.073,0.164 0.105,0.248c0.018,0.046 0.045,0.088 0.057,0.137Zm-3.198,21.468l0,-18.276l-6.832,3.878l-9.439,5.358l0,18.276l16.273,-9.236l-0.002,0Zm-19.524,33.059l0,-18.287l-9.285,5.228l-26.513,14.918l0,18.46l35.798,-20.319Zm-74.847,0l35.794,20.317l0,-18.456l-18.7,-10.433l-0.014,-0.008c-0.063,-0.037 -0.116,-0.089 -0.175,-0.133c-0.05,-0.04 -0.109,-0.072 -0.154,-0.116l-0.004,-0.006c-0.053,-0.05 -0.089,-0.112 -0.134,-0.168c-0.041,-0.054 -0.089,-0.1 -0.122,-0.156l-0.002,-0.006c-0.037,-0.06 -0.059,-0.133 -0.085,-0.201c-0.027,-0.06 -0.061,-0.116 -0.078,-0.18l0,-0.002c-0.02,-0.076 -0.024,-0.156 -0.032,-0.234c-0.008,-0.06 -0.024,-0.12 -0.024,-0.181l0,-43.03l-9.438,-5.36l-6.832,-3.874l0,62.227Zm17.899,-74.235l-16.268,9.232l16.264,9.232l16.266,-9.234l-16.266,-9.23l0.004,0Zm8.46,57.614l9.437,-5.356l0,-40.252l-6.833,3.878l-9.439,5.358l0,40.252l6.835,-3.88Zm50.115,-46.72l-16.265,9.232l16.265,9.232l16.264,-9.234l-16.264,-9.23Zm-1.627,21.242l-9.439,-5.358l-6.833,-3.878l0,18.276l9.437,5.356l6.835,3.88l0,-18.276Zm-37.428,41.184l23.858,-13.428l11.926,-6.71l-16.253,-9.226l-18.714,10.622l-17.056,9.68l16.239,9.062Z" style="fill:#ededed;"/><defs><linearGradient id="_Linear1" x1="0" y1="0" x2="1" y2="0" gradientUnits="userSpaceOnUse" gradientTransform="matrix(8.16431e-15,133.333,-133.333,8.16431e-15,0,0)"><stop offset="0" style="stop-color:#bbb;stop-opacity:0.1"/><stop offset="1" style="stop-color:#000;stop-opacity:0.1"/></linearGradient></defs></svg>